<?xml version="1.0" encoding="utf-8"?>
<!-- Generator: Adobe Illustrator 26.0.1, SVG Export Plug-In . SVG Version: 6.00 Build 0)  -->
<svg version="1.1" id="Layer_1" xmlns="http://www.w3.org/2000/svg" xmlns:xlink="http://www.w3.org/1999/xlink" x="0px" y="0px"
	 viewBox="0 0 256.9 35.5" style="enable-background:new 0 0 256.9 35.5;" xml:space="preserve">
<style type="text/css">
	.st0{fill:#C6C6C5;}
	.st1{fill:#9C9B9B;}
	.st2{fill:#FFFFFF;}
</style>
<g>
	<g>
		<rect class="st0" width="76.2" height="35.5"/>
		<rect x="94.5" class="st0" width="37.1" height="35.5"/>
		<rect x="75.9" class="st1" width="19" height="35.5"/>
		<path class="st2" d="M49.6,20.9c0,1.3-0.4,2.4-2,2.4h0c-1.6,0-2-1.1-2-2.4v-9.5h-1.8v9.5c0,2.1,1.2,3.8,3.7,3.8h0
			c2.5,0,3.7-1.7,3.7-3.8v-9.5h-1.8V20.9z"/>
		<polygon class="st2" points="16.6,16.9 12.6,16.9 12.6,11.3 10.9,11.3 10.9,24.6 12.6,24.6 12.6,18.4 16.6,18.4 16.6,24.6 
			18.3,24.6 18.3,11.3 16.6,11.3 		"/>
		<polygon class="st2" points="67.9,20.8 64.4,11.3 61.7,11.3 61.7,24.6 63.5,24.6 63.5,13.4 67.7,24.6 69.6,24.6 69.6,11.3 
			67.9,11.3 		"/>
		<polygon class="st2" points="31,17 28.7,11.3 26.9,11.3 30.2,19 30.2,24.6 31.9,24.6 31.9,19 35.2,11.3 33.3,11.3 		"/>
		<rect x="119.1" y="11.3" class="st2" width="1.7" height="13.2"/>
		<path class="st2" d="M84.5,11.3h-2.8v13.2h2.8c1.5,0,2.7-0.4,3.5-1.4c0.8-1,1.3-2.7,1.3-5.2c0-2.5-0.4-4.2-1.3-5.2
			C87.1,11.7,85.9,11.3,84.5,11.3 M84.1,23.1h-0.7V12.8h0.7c2.2,0,3.4,0.7,3.4,5.1C87.5,22.4,86.3,23.1,84.1,23.1"/>
		<path class="st2" d="M102.5,11.3L102.5,11.3l-3.2,13.2h1.8l0.8-3.7h3.5l0.8,3.7h1.8l-3.1-13.2H102.5z M102.2,19.3l1.5-6.6l1.5,6.6
			H102.2z"/>
	</g>
	<g>
		<g>
			<g>
				<rect x="151.1" y="10.4" class="st1" width="11.7" height="1.8"/>
				<path class="st1" d="M162.2,16.9c0-2.1-1.9-3.7-5.1-3.7c-3.1,0-5.1,1.7-5.1,3.7c0,2,2,3.7,5.1,3.7
					C160.2,20.7,162.2,18.9,162.2,16.9 M154.1,16.9c0-1.1,1-1.9,2.9-1.9c1.9,0,2.9,0.8,2.9,1.9c0,1.2-1,1.9-2.9,2
					C155.1,18.8,154.1,18.1,154.1,16.9"/>
				<rect x="153.9" y="7.1" class="st1" width="6.4" height="1.8"/>
				<polygon class="st1" points="162.8,14.6 166,14.6 166,17.1 162.8,17.1 162.8,19 166,19 166,23.1 168.1,23.1 168.1,7.1 166,7.1 
					166,12.7 162.8,12.7 				"/>
				<polygon class="st1" points="157,21.9 154.8,21.9 154.8,28.2 168.7,28.2 168.7,26.2 157,26.2 				"/>
				<polygon class="st1" points="175.7,10.5 181.5,10.5 181.5,8.6 173.6,8.6 173.6,23.3 182.8,23.3 182.8,21.3 175.7,21.3 				"/>
				<polygon class="st1" points="188,14.8 185.6,14.8 185.6,7.5 183.5,7.5 183.5,27.6 185.6,27.6 185.6,17 188,17 188,28.2 
					190.1,28.2 190.1,7.1 188,7.1 				"/>
			</g>
		</g>
		<g>
			<path class="st1" d="M203.6,12.3h2.3V7.5h2.1v14.7h-2.1v-7.8h-2.3v5h-7.8V8.1h2.2v3.7h3.5V8.1h2.1V12.3z M201.5,17.4v-3.5h-3.5
				v3.5H201.5z M212.5,27.7h-14.3v-6.4h2.1v4.3h12.1V27.7z M212.1,22.6H210V7.1h2.1V22.6z"/>
			<path class="st1" d="M229.3,22.8c-0.6,0.1-3.4,0.6-6.3,0.6l-4.9,0V9.5h9.5v2h-7.3v9.8l3.6,0c1.9,0,4.9-0.4,5.5-0.5V22.8z
				 M233.3,28.2h-2.2v-21h2.2V28.2z"/>
			<path class="st1" d="M256.9,25.1H238v-2h18.9V25.1z M247.5,13.7c-0.8,2.6-4.1,5.4-7,6.3l-1.5-1.7c6.5-2.4,7.3-6.6,7.3-8.6V8.3
				h2.3v1.5c0,2,1.1,6.2,7.3,8.6l-1.5,1.7C251.5,19.1,248.4,16.1,247.5,13.7z"/>
		</g>
	</g>
</g>
</svg>
